:FULLY-SPECIFIED
:FORCE-ALL-JOINTS-BE-3DOF
:DEGREES
611
root 5.94466 16.7214 -3.702 0.687276 53.796 -7.15673
lfemur -15.4701 19.2011 -22.4354
ltibia 36.9823 -0 0
lfoot -34.7507 24.4626 -0.176218
ltoes 23.5949 -0 0
rfemur -49.0203 -16.3254 19.4991
rtibia 67.3654 -0 0
rfoot 10.9844 20.8186 -0.382854
rtoes -20.1384 0 0
lowerback 2.53751 -3.07692 -3.68757
upperback -0.22163 -4.18245 2.07544
thorax -1.25928 -2.06611 4.3425
lowerneck -8.86364 -9.12828 -0.341861
upperneck 15.5933 -12.7885 2.79202
head 6.4362 -5.97551 -0.0997793
lclavicle -2.73329e-014 6.75868e-015 0
lhumerus -21.2797 -40.3755 92.9702
lradius 59.2958 -0 0
lwrist 21.1764 0 0
lhand -14.2545 -2.28726 -0.0377809
lfingers 7.12502 -0 0
lthumb 11.8833 27.3484 -0.0369647
rclavicle -2.73329e-014 6.75868e-015 0
rhumerus 22.5277 5.61092 -68.5207
rradius 117.014 -0 0
rwrist -57.0425 0 0
rhand -29.1379 -23.5295 0.0675394
rfingers 7.12502 -0 0
rthumb -2.48481 -53.485 0.0649646
612
root 5.92642 16.7373 -3.71642 1.10663 51.9353 -6.8884
lfemur -15.4948 19.7705 -22.6246
ltibia 36.8061 -0 0
lfoot -34.9492 24.8451 -0.157933
ltoes 24.6403 -0 0
rfemur -49.1943 -16.5128 19.6637
rtibia 67.831 -0 0
rfoot 10.8626 21.2852 -0.372405
rtoes -20.1824 0 0
lowerback 2.45127 -3.17107 -3.59217
upperback -0.323 -4.30314 2.07328
thorax -1.30747 -2.12352 4.28723
lowerneck -9.00692 -8.92851 -0.183779
upperneck 15.6643 -12.5251 2.65101
head 6.45461 -5.84753 -0.15414
lclavicle -2.73329e-014 6.75868e-015 0
lhumerus -21.3286 -41.1109 93.6113
lradius 59.656 -0 0
lwrist 21.0445 0 0
lhand -13.9898 -2.27895 -0.0355564
lfingers 7.12502 -0 0
lthumb 12.1387 27.3424 -0.0346743
rclavicle -2.73329e-014 6.75868e-015 0
rhumerus 22.0497 5.05221 -68.3917
rradius 115.945 -0 0
rwrist -57.5013 0 0
rhand -29.3097 -23.8615 0.0637396
rfingers 7.12502 -0 0
rthumb -2.65074 -53.8159 0.061319
613
root 5.90819 16.7533 -3.73085 1.51081 50.1055 -6.63887
lfemur -15.5228 20.3203 -22.8133
ltibia 36.6395 -0 0
lfoot -35.1419 25.1954 -0.138685
ltoes 25.6352 -0 0
rfemur -49.3735 -16.7083 19.837
rtibia 68.2761 -0 0
rfoot 10.7239 21.703 -0.356067
rtoes -20.1994 0 0
lowerback 2.36551 -3.26188 -3.50308
upperback -0.42152 -4.41973 2.06876
thorax -1.35325 -2.17903 4.23279
lowerneck -9.14398 -8.73531 -0.0335865
upperneck 15.7168 -12.271 2.5222
head 6.46829 -5.72401 -0.203686
lclavicle -2.73329e-014 6.75868e-015 0
lhumerus -21.3946 -41.8493 94.253
lradius 60.0159 -0 0
lwrist 20.9229 0 0
lhand -13.7266 -2.26436 -0.0328835
lfingers 7.12502 -0 0
lthumb 12.3924 27.3425 -0.0319593
rclavicle -2.73329e-014 6.75868e-015 0
rhumerus 21.518 4.51207 -68.2786
rradius 114.859 -0 0
rwrist -57.8936 0 0
rhand -29.4743 -24.2068 0.0590699
rfingers 7.12502 -0 0
rthumb -2.80969 -54.16 0.0568358
614
root 5.88995 16.7692 -3.74527 1.90327 48.3112 -6.40471
lfemur -15.5534 20.848 -23.0012
ltibia 36.4815 -0 0
lfoot -35.3273 25.5114 -0.118875
ltoes 26.5731 -0 0
rfemur -49.5582 -16.9129 20.0205
rtibia 68.6985 -0 0
rfoot 10.5682 22.0672 -0.333592
rtoes -20.1856 0 0
lowerback 2.28008 -3.3489 -3.42145
upperback -0.516903 -4.5317 2.06144
thorax -1.39626 -2.23237 4.17935
lowerneck -9.27431 -8.54965 0.107842
upperneck 15.7498 -12.0275 2.40675
head 6.47692 -5.60557 -0.247936
lclavicle -2.73329e-014 6.75868e-015 0
lhumerus -21.476 -42.5902 94.8916
lradius 60.3746 -0 0
lwrist 20.8126 0 0
lhand -13.4654 -2.24275 -0.0297914
lfingers 7.12502 -0 0
lthumb 12.6443 27.3494 -0.0288521
rclavicle -2.73329e-014 6.75868e-015 0
rhumerus 20.9299 3.99319 -68.1825
rradius 113.757 -0 0
rwrist -58.2125 0 0
rhand -29.6305 -24.5655 0.0535737
rfingers 7.12502 -0 0
rthumb -2.96052 -54.5177 0.0515561
615
root 5.87172 16.7851 -3.7597 2.28695 46.5568 -6.18301
lfemur -15.5857 21.3513 -23.1876
ltibia 36.3312 -0 0
lfoot -35.504 25.7913 -0.0989191
ltoes 27.4478 -0 0
rfemur -49.7488 -17.1277 20.2161
rtibia 69.0957 -0 0
rfoot 10.3949 22.373 -0.304795
rtoes -20.1372 0 0
lowerback 2.19483 -3.43171 -3.34845
upperback -0.608865 -4.63849 2.05087
thorax -1.43616 -2.28329 4.1271
lowerneck -9.39741 -8.37253 0.239638
upperneck 15.7618 -11.796 2.3058
head 6.4802 -5.49283 -0.286408
lclavicle -2.73329e-014 6.75868e-015 0
lhumerus -21.5711 -43.3334 95.5234
lradius 60.7312 -0 0
lwrist 20.7146 0 0
lhand -13.2064 -2.21339 -0.0263151
lfingers 7.12502 -0 0
lthumb 12.8941 27.364 -0.0253912
rclavicle -2.73329e-014 6.75868e-015 0
rhumerus 20.2826 3.49813 -68.1045
rradius 112.642 -0 0
rwrist -58.451 0 0
rhand -29.7771 -24.9379 0.0473134
rfingers 7.12502 -0 0
rthumb -3.10211 -54.8891 0.0455394
616
root 5.85349 16.8011 -3.77412 2.6644 44.8469 -5.97126
lfemur -15.6186 21.8275 -23.3721
ltibia 36.1875 -0 0
lfoot -35.6705 26.033 -0.0792458
ltoes 28.253 -0 0
rfemur -49.9458 -17.3537 20.4254
rtibia 69.4654 -0 0
rfoot 10.2037 22.6153 -0.269571
rtoes -20.0503 0 0
lowerback 2.10963 -3.50987 -3.28524
upperback -0.697117 -4.73957 2.03661
thorax -1.47261 -2.33154 4.07622
lowerneck -9.51279 -8.20496 0.360941
upperneck 15.7518 -11.5778 2.22051
head 6.47782 -5.38638 -0.31862
lclavicle -2.73329e-014 6.75868e-015 0
lhumerus -21.678 -44.0787 96.1441
lradius 61.0849 -0 0
lwrist 20.6299 0 0
lhand -12.9498 -2.17554 -0.0224951
lfingers 7.12502 -0 0
lthumb 13.1414 27.3868 -0.0216203
rclavicle -2.73329e-014 6.75868e-015 0
rhumerus 19.5733 3.02943 -68.0458
rradius 111.512 -0 0
rwrist -58.6022 0 0
rhand -29.9129 -25.3242 0.0403719
rfingers 7.12502 -0 0
rthumb -3.23332 -55.2746 0.0388651
